<svg width="244" height="249" viewBox="0 0 244 249" fill="none" xmlns="http://www.w3.org/2000/svg">
<path d="M176.115 23.7648C178.052 21.7788 180.252 20.0635 182.54 18.7094L165.29 1.01559C163.97 -0.33853 161.77 -0.33853 160.449 1.01559L2.11901 163.42C0.446819 165.135 0.446819 167.933 2.11901 169.649L17.9609 185.898C30.1063 173.44 49.9086 173.44 62.054 185.898C74.1994 198.356 74.1994 218.668 62.054 231.126L78.4239 247.917C79.8321 249.361 82.1204 249.361 83.5285 247.917L241.947 85.4224C243.531 83.7974 243.531 81.1795 241.947 79.5545L225.137 62.3121C223.553 65.1106 221.529 67.7285 219.064 69.9854C207.535 80.6378 189.845 80.9989 178.052 70.7076C163.97 58.5205 163.354 36.8546 176.115 23.7648ZM142.055 105.824C147.336 111.421 151.032 117.831 151.912 125.775C152.881 134.261 150.24 141.483 144.696 147.712C141.351 151.413 137.655 154.573 132.99 156.378C124.893 159.628 117.148 158.364 109.932 153.76C106.411 151.503 103.155 148.705 99.9864 145.816C96.378 142.566 93.0336 138.955 89.7772 135.344C86.8729 132.185 82.0323 131.553 78.3359 135.344C73.0553 140.851 67.7747 146.267 62.4061 151.684C60.2938 153.851 57.5655 154.212 55.0132 152.858C52.6369 151.503 51.3168 148.795 51.9328 145.997C52.1088 145.274 52.3729 144.552 52.5489 143.83L111.868 82.985C114.156 82.1725 116.444 81.4503 118.733 82.7141C119.525 83.1655 120.317 83.6169 120.933 84.2488C128.15 91.3805 135.191 98.5122 142.055 105.824ZM201.726 122.254C200.054 123.97 197.326 123.97 195.654 122.254C193.981 120.539 193.981 117.741 195.654 116.025C197.326 114.31 200.054 114.31 201.726 116.025C203.487 117.741 203.487 120.539 201.726 122.254ZM191.781 112.053C190.109 113.769 187.381 113.769 185.708 112.053C184.036 110.338 184.036 107.54 185.708 105.824C187.381 104.109 190.109 104.109 191.781 105.824C193.453 107.54 193.453 110.248 191.781 112.053ZM181.748 101.762C180.076 103.477 177.347 103.477 175.675 101.762C174.003 100.047 174.003 97.2483 175.675 95.5331C177.347 93.8179 180.076 93.8179 181.748 95.5331C183.42 97.2483 183.42 100.047 181.748 101.762ZM171.715 91.4708C170.043 93.186 167.314 93.186 165.642 91.4708C163.97 89.7556 163.97 86.957 165.642 85.2418C167.314 83.5266 170.043 83.5266 171.715 85.2418C173.387 86.957 173.387 89.7556 171.715 91.4708ZM161.682 81.1795C160.009 82.8947 157.281 82.8947 155.609 81.1795C153.937 79.4642 153.937 76.6657 155.609 74.9505C157.281 73.2353 160.009 73.2353 161.682 74.9505C163.354 76.6657 163.354 79.4642 161.682 81.1795ZM151.648 70.8882C149.976 72.6034 147.248 72.6034 145.576 70.8882C143.904 69.1729 143.904 66.3744 145.576 64.6592C147.248 62.944 149.976 62.944 151.648 64.6592C153.321 66.3744 153.321 69.1729 151.648 70.8882ZM141.615 60.6871C139.943 62.4023 137.215 62.4023 135.543 60.6871C133.87 58.9719 133.87 56.1734 135.543 54.4582C137.215 52.743 139.943 52.743 141.615 54.4582C143.375 56.0831 143.375 58.8816 141.615 60.6871ZM131.67 50.3958C129.998 52.111 127.27 52.111 125.597 50.3958C123.925 48.6806 123.925 45.8821 125.597 44.1669C127.27 42.4516 129.998 42.4516 131.67 44.1669C133.342 45.8821 133.342 48.6806 131.67 50.3958ZM111.78 101.22C109.404 103.748 106.939 106.186 104.475 108.713C101.923 111.331 99.3704 113.859 96.9061 116.477C93.9137 119.636 93.5617 124.15 96.29 127.039C101.043 131.914 105.795 136.789 110.724 141.393C114.068 144.462 118.117 146.177 122.693 145.906C130.438 145.455 138.447 138.143 139.943 130.199C141.263 123.428 138.799 117.741 134.398 112.866C130.79 108.803 126.742 105.193 123.133 101.13C120.317 98.0608 115.388 97.4289 111.78 101.22Z" fill="white"/>
<circle cx="116.328" cy="174.061" r="10.6305" transform="rotate(45.2334 116.328 174.061)" fill="black"/>
<circle cx="112.776" cy="177.583" r="10.6305" transform="rotate(45.2334 112.776 177.583)" fill="#1552F0"/>
<circle cx="108.337" cy="181.986" r="10.6305" transform="rotate(45.2334 108.337 181.986)" fill="#2CB04C"/>
<circle cx="104.785" cy="185.51" r="10.6305" transform="rotate(45.2334 104.785 185.51)" fill="#E84D43"/>
</svg>
